# xmcd
#
# Track frame offsets:
#	150
#	22114
#	40208
#	56454
#	72188
#	98930
#	122079
#	133172
#	147196
#	164600
#	179051
#	196891
#	216612
#	236118
#
# Disc length: 3419 seconds
#
# Revision: 2
# Processed by: cddbd v1.5.1PL0 Copyright (c) Steve Scherf et al.
# Submitted via: MusicManager 7.0.6.0 
#
DISCID=df0d590e
DTITLE=Various  Artists - Heaven On Earth
DYEAR=2004
DGENRE=
TTITLE0=Michael de Jong - Cracks In The Ceiling
TTITLE1=Kevin Bowe and The Okemah Prophets - No Riders
TTITLE2=Diane Craig - Ghost Of Townes Van Zandt
TTITLE3=David Olney - Wait Here For The Cops
TTITLE4=Teye - El Deseo
TTITLE5=Patricia Vonne - Soledad
TTITLE6=Maria Jeminez - Por El Bulevar De Los Suentos Rotos
TTITLE7=John Coinman - Once I Moved Like The Wind
TTITLE8=Jeff Talmadge - Interstate Blues
TTITLE9=Paul K - The Lavender Door
TTITLE10=Wendy MaHarry - Devil Feels At Home
TTITLE11=Garth Hudson - Little Island
TTITLE12=Rick Danko - People Of Conscience
TTITLE13=Jean Paul Rena and Terrawheel - Low Down
EXTD=2003\nCoraZong\n255998\nHeaven bijlage december 2003.\\r\nIngevoerd door Henk Overeem.
EXTT0=
EXTT1=CD - Angels On The Freeway
EXTT2=
EXTT3=
EXTT4=
EXTT5=
EXTT6=
EXTT7=
EXTT8=
EXTT9=
EXTT10=
EXTT11=
EXTT12=CD Times Like These\\r\n
EXTT13=
PLAYORDER=
